<?xml version="1.0" encoding="UTF-8" standalone="no"?>
<!-- Generator: Adobe Illustrator 19.1.0, SVG Export Plug-In . SVG Version: 6.00 Build 0)  -->

<svg
   xmlns:dc="http://purl.org/dc/elements/1.1/"
   xmlns:cc="http://creativecommons.org/ns#"
   xmlns:rdf="http://www.w3.org/1999/02/22-rdf-syntax-ns#"
   xmlns:svg="http://www.w3.org/2000/svg"
   xmlns="http://www.w3.org/2000/svg"
   xmlns:sodipodi="http://sodipodi.sourceforge.net/DTD/sodipodi-0.dtd"
   xmlns:inkscape="http://www.inkscape.org/namespaces/inkscape"
   version="1.1"
   x="0px"
   y="0px"
   viewBox="-258 223.8 2417.1838 372.85782"
   xml:space="preserve"
   id="svg2"
   inkscape:version="0.92.3 (2405546, 2018-03-11)"
   sodipodi:docname="Newsweek_Logo.svg"
   width="2417.1838"
   height="372.85782"><title
     id="title4289">Newsweek Logozz</title><metadata
     id="metadata51"><rdf:RDF><cc:Work
         rdf:about=""><dc:format>image/svg+xml</dc:format><dc:type
           rdf:resource="http://purl.org/dc/dcmitype/StillImage" /><dc:title>Newsweek Logozz</dc:title></cc:Work></rdf:RDF></metadata><defs
     id="defs49" /><sodipodi:namedview
     pagecolor="#ffffff"
     bordercolor="#666666"
     borderopacity="1"
     objecttolerance="10"
     gridtolerance="10"
     guidetolerance="10"
     inkscape:pageopacity="0"
     inkscape:pageshadow="2"
     inkscape:window-width="1920"
     inkscape:window-height="980"
     id="namedview47"
     showgrid="false"
     inkscape:showpageshadow="false"
     fit-margin-top="0"
     fit-margin-right="0"
     fit-margin-bottom="0"
     fit-margin-left="0"
     inkscape:zoom="0.39716147"
     inkscape:cx="1005.3139"
     inkscape:cy="194.62855"
     inkscape:window-x="0"
     inkscape:window-y="27"
     inkscape:window-maximized="1"
     inkscape:current-layer="svg2" /><style
     type="text/css"
     id="style4">
	.st0{display:none;fill:#FF0500;}
	.st1{fill:#FFFFFF;}
	.st2{fill:#FF0500;}
	.st3{fill:none;}
	.st4{fill:#E5E5E5;}
	.st5{fill:#999999;}
</style><rect
     id="Rectangle-7"
     x="-536.98877"
     y="595.46838"
     class="st0"
     width="275"
     height="60"
     style="display:none;fill:#800000" /><path
     id="Logo-Copy"
     style="fill:#ffffff;stroke-width:6.82074499"
     d="M 105.27001,289.84909 H 71.180202 V 587.07004 H 7.261702 L -148.27325,384.66151 v 136.35943 h 34.08981 v 66.0491 H -258 v -66.0491 h 34.08988 V 289.84909 H -258 V 223.8 h 109.72675 L -3.391348,412.35952 V 289.84909 h -34.08988 V 223.8 H 106.33534 c -1.06533,0 -1.06533,66.04909 -1.06533,66.04909 z m 227.97596,169.38398 c 0,5.32654 0,10.65308 0,17.04493 H 174.51509 c -4.26126,51.13479 14.91431,66.0491 43.6776,66.0491 24.50209,0 42.61233,-15.97963 42.61233,-41.54702 h 68.17969 c -1.06533,44.74294 -24.50209,95.87773 -115.05328,95.87773 -89.48586,0 -131.032848,-64.98379 -131.032848,-137.42474 0,-64.98379 42.612328,-134.22881 129.967518,-134.22881 83.09406,0 120.37987,58.59194 120.37987,134.22881 z M 725.27932,394.24928 H 701.8425 L 643.2506,591.33127 H 565.48306 L 529.26265,483.73515 496.2381,591.33127 H 417.40523 L 352.42154,394.24928 h -23.43683 v -67.1144 h 137.42471 v 67.1144 h -34.08988 l 36.22054,104.40019 46.87353,-171.51459 h 42.61233 l 57.52664,171.51459 30.89395,-104.40019 h -34.08988 v -67.1144 h 115.05317 c -2.1305,0 -2.1305,67.1144 -2.1305,67.1144 z m 96.94298,2.13062 c 0,9.58777 7.4572,15.97962 33.0246,23.43677 l 37.2857,11.71838 c 34.0899,11.7184 75.6369,36.22049 75.6369,83.09404 0,54.33071 -40.4817,80.96341 -91.6165,80.96341 -40.4817,0 -71.3756,-19.17554 -79.8981,-28.76332 v 22.37147 h -67.11438 v -91.61649 h 66.04908 c 2.1307,29.82863 28.7634,45.80825 52.2001,45.80825 19.1756,0 28.7633,-8.52247 28.7633,-18.11024 0,-11.71839 -7.4571,-19.17555 -40.4817,-29.82863 l -33.0246,-10.65308 c -33.0245,-10.65307 -70.31028,-35.15516 -70.31028,-79.8981 0,-54.33071 47.93888,-80.96341 88.42058,-80.96341 42.6123,0 62.8532,11.71839 73.5062,23.43678 v -20.24085 h 67.1145 v 82.02871 h -69.2451 c -1.0653,-22.37147 -22.3714,-31.95924 -44.7429,-31.95924 -18.1102,1.06531 -25.5674,8.52246 -25.5674,19.17555 z m 547.5684,-2.13062 h -23.4368 l -58.592,197.08199 h -77.7674 l -36.2206,-107.59612 -33.0245,107.59612 h -78.8328 L 996.9328,394.24928 H 973.496 v -67.1144 h 137.4248 v 67.1144 h -34.0899 l 36.2205,104.40019 45.8082,-171.51459 h 42.6123 l 57.5267,171.51459 30.8939,-104.40019 h -35.1551 v -67.1144 h 115.0533 z m 242.8902,64.98379 c 0,5.32654 0,10.65308 0,17.04493 h -157.6656 c -4.2612,51.13479 14.9143,66.0491 43.6776,66.0491 24.5021,0 42.6123,-15.97963 42.6123,-41.54702 h 68.1798 c -1.0654,44.74294 -25.5674,95.87773 -115.0533,95.87773 -90.5512,0 -132.0982,-64.98379 -132.0982,-137.42474 0,-64.98379 43.6776,-134.22881 131.0329,-134.22881 83.094,0 119.3145,57.52663 119.3145,134.22881 z m 259.9351,-1.0653 c 0,5.32653 0,10.65307 0,17.04492 h -157.6656 c -4.2612,51.13478 14.9144,66.04909 43.6777,66.04909 24.5021,0 42.6123,-15.97961 42.6123,-41.54701 h 68.1797 c -1.0653,44.74294 -25.5674,95.87773 -115.0533,95.87773 -90.5511,0 -132.0982,-64.98379 -132.0982,-137.42473 0,-64.9838 43.6777,-134.22882 131.0329,-134.22882 83.0941,0 119.3145,57.52663 119.3145,134.22882 z m 286.5679,132.09819 h -78.8328 l -82.0287,-107.59611 -26.6327,20.24085 v 21.30616 h 23.4368 v 67.11441 H 1872.616 v -66.0491 h 23.4368 V 290.9144 H 1861.963 V 223.8 h 109.7267 v 210.93098 l 55.396,-40.4817 h -34.0899 v -67.1144 h 145.9472 v 67.1144 h -23.4367 l -57.5267,42.61232 66.0491,86.28995 h 34.0899 c 1.0653,1.06531 1.0653,67.11441 1.0653,67.11441 z M 1714.9504,432.60037 h 86.29 c 0,-37.28578 -24.5021,-52.2001 -41.547,-52.2001 -21.3062,0 -43.6776,17.04493 -44.743,52.2001 z m -259.9351,0 h 86.2899 c 0,-37.28578 -24.502,-52.2001 -42.6123,-52.2001 -20.2408,1.06531 -42.6123,18.11024 -43.6776,52.2001 z m -1279.43494,1.06531 h 86.28992 c 0,-37.28578 -24.50202,-52.2001 -42.61226,-52.2001 -21.30623,0 -42.61233,17.04493 -43.67766,52.2001 z"
     inkscape:connector-curvature="0" /></svg>